<svg t="1631636648444" class="icon" viewBox="0 0 1024 1024" version="1.1" xmlns="http://www.w3.org/2000/svg" p-id="15637" width="30" height="30"><path d="M755.9 942.8H268.3c-80.7 0-146.3-65.6-146.3-146.3V676L92.9 413.8C40.7 407.4 0.1 362.8 0.1 308.9c0-58.3 47.4-105.7 105.6-105.7s105.6 47.4 105.6 105.7c0 24.3-8.4 47.4-23.4 66L353 587.2l103.5-310.6c-30.7-18.9-50.1-52.5-50.1-89.5 0-58.3 47.4-105.6 105.6-105.6S617.8 128.8 617.8 187c0 37-19.4 70.6-50.1 89.5l103.5 310.6 165.1-212.2c-15.1-18.6-23.4-41.7-23.4-66 0-58.3 47.4-105.7 105.6-105.7s105.7 47.4 105.7 105.7c0 53.9-40.6 98.5-92.8 104.9L902.2 676v120.5c0 80.7-65.6 146.3-146.3 146.3zM139.5 392.1l31.2 282.6v121.9c0 53.8 43.8 97.5 97.5 97.5h487.6c53.8 0 97.5-43.8 97.5-97.5l0.2-124.6 31.1-279.9-207.1 266.3h-34L512.1 264.1 380.7 658.4h-34L139.5 392.1z m756.7-28.8l19.2 2.2c1 0.1 2 0.3 3 0.3 31.4 0 56.9-25.5 56.9-56.9S949.8 252 918.4 252s-56.9 25.5-56.9 56.9c0 17.4 8.1 33.7 22.2 44.7l12.5 9.7zM105.8 252.1c-31.4 0-56.9 25.5-56.9 56.9s25.5 56.9 56.9 56.9c1 0 2-0.2 3-0.3l19.2-2.2 12.5-9.7c14.1-11 22.2-27.3 22.2-44.7-0.1-31.4-25.6-56.9-56.9-56.9z m406.3-121.9c-31.4 0-56.9 25.5-56.9 56.9 0 24.3 15.7 45.8 39 53.6l17.9 6 17.9-6c23.3-7.8 39-29.3 39-53.6 0-31.4-25.5-56.9-56.9-56.9z" fill="#6F7782" p-id="15638"></path></svg>
