<svg t="1631636678844" class="icon" viewBox="0 0 1024 1024" version="1.1" xmlns="http://www.w3.org/2000/svg" p-id="16767" width="30" height="30"><path style="fill:#fff" d="M845.888 314.464a383.776 383.776 0 0 0-327.104-182.72c-212.064 0-384 171.904-384 384 0 138.24 73.088 259.456 182.752 327.072 63.84-34.336 140.16-88.512 218.432-157.568l14.08 8 4.224 18.72c-71.36 62.912-141.28 113.92-203.584 149.12a382.464 382.464 0 0 0 168.096 38.624c212.096 0 384-171.904 384-384 0-60.288-13.888-117.312-38.656-168.096-26.432 46.88-61.856 98.048-104.544 150.88l4.224-24.512-29.12 3.936c47.168-58.624 84.992-114.688 111.2-163.456z m16.576-33.184c26.976-58.88 33.216-103.392 13.696-122.912-19.52-19.52-64-13.312-122.912 13.664a418.304 418.304 0 0 1 109.216 109.248z m-141.248-129.088c80.96-39.776 145.44-48.576 177.568-16.448 32.128 32.096 23.296 96.608-16.48 177.568a414.112 414.112 0 0 1 52.48 202.4c0 229.76-186.24 416-416 416-73.472 0-142.496-19.04-202.4-52.48-80.96 39.776-145.472 48.608-177.6 16.48-32.096-32.128-23.296-96.64 16.48-177.6a414.112 414.112 0 0 1-52.48-202.4c0-229.76 186.24-416 416-416 73.472 0 142.528 19.072 202.432 52.48zM175.104 750.176c-26.976 58.88-33.216 103.36-13.664 122.88 19.52 19.552 64 13.312 122.88-13.664a418.304 418.304 0 0 1-109.216-109.216z m559.104-250.592L621.76 801.28l-46.432-150.56-149.952-60.064 308.8-91.104z" p-id="16768" fill="#6F7782"></path></svg>
