<svg t="1631636986381" class="icon" viewBox="0 0 1024 1024" version="1.1" xmlns="http://www.w3.org/2000/svg" p-id="23473" width="30" height="30"><path d="M926.857268 8.353667a40.420968 40.420968 0 0 0-35.839924-5.928409L382.14431 160.605978A68.634803 68.634803 0 0 0 350.66985 215.578494v511.998922a253.30473 253.30473 0 0 0-155.971041 8.892612A191.137282 191.137282 0 0 0 99.736483 819.198275a133.011931 133.011931 0 0 0 81.704249 198.062741 176.073735 176.073735 0 0 0 49.124949 6.736828 197.06569 197.06569 0 0 0 76.530366-15.629441C380.581366 977.917941 431.511785 888.72234 431.511785 808.419351V215.578494l431.480354-120.185011v478.853729a163.112078 163.112078 0 0 0-28.537203-11.317871 198.440003 198.440003 0 0 0-220.967956 91.351387 137.43129 137.43129 0 0 0-9.135138 119.376591 147.240111 147.240111 0 0 0 140.853598 84.614558 197.954952 197.954952 0 0 0 76.099208-15.359967c41.391071-16.976806 122.071322-81.380881 122.071322-134.736559V40.690441a40.259284 40.259284 0 0 0-16.518702-32.336774zM276.456953 934.263296a112.2625 112.2625 0 0 1-72.757741 5.658936 52.708942 52.708942 0 0 1-33.818877-81.919828 112.855341 112.855341 0 0 1 55.457568-47.427268 118.08312 118.08312 0 0 1 45.81043-9.431559A68.203646 68.203646 0 0 1 337.196194 836.444555c13.850918 33.68414-13.958707 78.416677-60.739241 97.818741z m569.585327-212.614289a112.612816 112.612816 0 0 1-55.592304 47.157796c-46.834428 19.402064-98.196004 7.545247-112.100816-25.86942a59.04156 59.04156 0 0 1 5.389462-50.121999 112.66671 112.66671 0 0 1 55.619251-47.157796 122.017427 122.017427 0 0 1 46.079903-9.431559 96.498323 96.498323 0 0 1 26.758681 3.503151 58.960718 58.960718 0 0 1 39.235286 31.797827 59.149349 59.149349 0 0 1-5.389463 50.122z" p-id="23474" fill="#6F7782"></path></svg>
